<svg width="20" height="20" viewBox="0 0 20 20" fill="none" xmlns="http://www.w3.org/2000/svg">
<g id="Frame" clip-path="url(#clip0_73_270)">
<g id="SVGRepo_iconCarrier">
<path id="Vector" d="M7.57508 7.50002C7.771 6.94308 8.15771 6.47345 8.66675 6.1743C9.17575 5.87515 9.77416 5.7658 10.3561 5.86561C10.938 5.96543 11.4657 6.26795 11.846 6.71963C12.2262 7.1713 12.4343 7.74295 12.4334 8.33335C12.4334 10 9.93341 10.8334 9.93341 10.8334M10.0001 14.1667H10.0084M18.3334 10C18.3334 14.6024 14.6024 18.3334 10.0001 18.3334C5.39771 18.3334 1.66675 14.6024 1.66675 10C1.66675 5.39765 5.39771 1.66669 10.0001 1.66669C14.6024 1.66669 18.3334 5.39765 18.3334 10Z" stroke="white" stroke-width="1.58333" stroke-linecap="round" stroke-linejoin="round"/>
</g>
</g>
<defs>
<clipPath id="clip0_73_270">
<rect width="20" height="20" fill="white"/>
</clipPath>
</defs>
</svg>
