<svg width="20" height="20" viewBox="0 0 20 20" fill="none" xmlns="http://www.w3.org/2000/svg">
<g id="pix-svgrepo-com 1">
<g id="SVGRepo_iconCarrier">
<path id="Vector" d="M14.8964 14.6375C14.5588 14.6383 14.2244 14.5721 13.9124 14.443C13.6005 14.3138 13.3172 14.1242 13.0789 13.885L10.4539 11.26C10.361 11.1717 10.2377 11.1225 10.1095 11.1225C9.98137 11.1225 9.85809 11.1717 9.76517 11.26L7.13017 13.895C6.89197 14.1343 6.6087 14.324 6.29674 14.4532C5.98478 14.5823 5.65031 14.6484 5.31267 14.6475H4.79517L8.12017 17.9725C9.15767 19.01 10.8414 19.01 11.8789 17.9725L15.2127 14.6375H14.8964ZM5.31267 5.35251C6.00017 5.35251 6.64517 5.62001 7.13017 6.10501L9.76517 8.74001C9.81044 8.78536 9.86422 8.82134 9.92342 8.84589C9.98262 8.87044 10.0461 8.88308 10.1102 8.88308C10.1743 8.88308 10.2377 8.87044 10.2969 8.84589C10.3561 8.82134 10.4099 8.78536 10.4552 8.74001L13.0802 6.11501C13.3182 5.87586 13.6013 5.68623 13.913 5.55707C14.2248 5.42792 14.559 5.36179 14.8964 5.36251H15.2127L11.8789 2.02876C11.3804 1.53054 10.7044 1.25067 9.99954 1.25067C9.29471 1.25067 8.61873 1.53054 8.12017 2.02876L4.79517 5.35376L5.31267 5.35251Z" fill="white"/>
<path id="Vector_2" d="M17.9714 8.12L15.9564 6.105C15.9111 6.12358 15.8628 6.13334 15.8139 6.13375H14.8976C14.4239 6.13375 13.9601 6.32625 13.6264 6.66125L11.0014 9.28625C10.8846 9.4036 10.7458 9.49673 10.593 9.56027C10.4402 9.62382 10.2763 9.65653 10.1107 9.65653C9.94521 9.65653 9.78131 9.62382 9.62847 9.56027C9.47562 9.49673 9.33685 9.4036 9.22011 9.28625L6.58511 6.65C6.24704 6.31333 5.78972 6.12375 5.31261 6.1225H4.18761C4.14097 6.12213 4.09479 6.11324 4.05136 6.09625L2.02886 8.12C0.991357 9.1575 0.991357 10.8413 2.02886 11.88L4.05136 13.9025C4.09431 13.8852 4.14006 13.8759 4.18636 13.875H5.31261C5.78761 13.875 6.25011 13.6838 6.58511 13.3488L9.21886 10.7125C9.45917 10.4837 9.77829 10.3561 10.1101 10.3561C10.4419 10.3561 10.761 10.4837 11.0014 10.7125L13.6264 13.3375C13.9601 13.6725 14.4239 13.8638 14.8976 13.8638H15.8139C15.8639 13.8638 15.9126 13.8763 15.9564 13.8938L17.9714 11.8788C19.0089 10.8413 19.0089 9.1575 17.9714 8.12Z" fill="white"/>
</g>
</g>
</svg>
