<svg width="40" height="40" viewBox="0 0 40 40" fill="none" xmlns="http://www.w3.org/2000/svg">
<circle cx="20" cy="20" r="20" fill="#AD1919"/>
<g clip-path="url(#clip0_11_24)">
<path fill-rule="evenodd" clip-rule="evenodd" d="M20 5.92593C19.5972 5.92632 19.2024 6.05945 18.8595 6.31051L8.22773 14.5789C7.47217 15.1708 7.24191 16.1899 7.53334 17.0595C7.81397 17.897 8.52275 18.4632 9.36826 18.4632H30.6317C31.4773 18.4632 32.186 17.897 32.4667 17.0595C32.7581 16.1899 32.5278 15.1708 31.7741 14.5811L31.7723 14.5789L21.1405 6.31051C20.7976 6.05945 20.4028 5.92632 20 5.92593ZM7.40741 31.1607C7.40741 29.8788 8.4364 29.2613 9.20635 29.2613H9.30529C9.30176 29.223 9.29996 29.1845 9.2999 29.1459V22.2855C9.2999 22.0021 9.39466 21.7304 9.56335 21.5301C9.73203 21.3297 9.96081 21.2172 10.1994 21.2172H13.1928C13.4314 21.2172 13.6601 21.3297 13.8288 21.5301C13.9975 21.7304 14.0923 22.0021 14.0923 22.2855V29.1459C14.0922 29.1845 14.0904 29.223 14.0869 29.2613H17.6092C17.6057 29.223 17.6039 29.1845 17.6038 29.1459V22.2855C17.6038 22.0021 17.6986 21.7304 17.8673 21.5301C18.0359 21.3297 18.2647 21.2172 18.5033 21.2172H21.4967C21.6148 21.2172 21.7318 21.2448 21.8409 21.2985C21.9501 21.3522 22.0492 21.4309 22.1327 21.5301C22.2163 21.6293 22.2825 21.7471 22.3277 21.8767C22.3729 22.0063 22.3962 22.1452 22.3962 22.2855V29.1459C22.3961 29.1845 22.3943 29.223 22.3908 29.2613H25.9131C25.9096 29.223 25.9078 29.1845 25.9077 29.1459V22.2855C25.9077 22.0021 26.0025 21.7304 26.1712 21.5301C26.3399 21.3297 26.5686 21.2172 26.8072 21.2172H29.8006C30.0392 21.2172 30.268 21.3297 30.4367 21.5301C30.6053 21.7304 30.7001 22.0021 30.7001 22.2855V29.1459C30.7 29.1845 30.6982 29.223 30.6947 29.2613H30.7937C31.5636 29.2613 32.5926 29.8788 32.5926 31.1628V33.6562C32.5926 34.9381 31.5636 35.5556 30.7937 35.5556H9.20635C8.4364 35.5556 7.40741 34.9381 7.40741 33.654V31.1607Z" fill="white"/>
</g>
<defs>
<clipPath id="clip0_11_24">
<rect width="25.1852" height="28.1481" fill="white" transform="translate(7.40741 5.92593)"/>
</clipPath>
</defs>
</svg>
