<svg width="24" height="23" viewBox="0 0 24 23" fill="none" xmlns="http://www.w3.org/2000/svg">
<g id="hamburger-menu-1--button-parallel-horizontal-lines-menu-navigation-three-hamburger">
<path id="Union" fill-rule="evenodd" clip-rule="evenodd" d="M0 1.91667C0 1.40833 0.180612 0.920823 0.502103 0.561379C0.823594 0.201934 1.25963 0 1.71429 0H22.2857C22.7404 0 23.1764 0.201934 23.4979 0.561379C23.8194 0.920823 24 1.40833 24 1.91667C24 2.425 23.8194 2.91251 23.4979 3.27195C23.1764 3.6314 22.7404 3.83333 22.2857 3.83333H1.71429C1.25963 3.83333 0.823594 3.6314 0.502103 3.27195C0.180612 2.91251 0 2.425 0 1.91667ZM0 11.5C0 10.9917 0.180612 10.5042 0.502103 10.1447C0.823594 9.78527 1.25963 9.58333 1.71429 9.58333H22.2857C22.7404 9.58333 23.1764 9.78527 23.4979 10.1447C23.8194 10.5042 24 10.9917 24 11.5C24 12.0083 23.8194 12.4958 23.4979 12.8553C23.1764 13.2147 22.7404 13.4167 22.2857 13.4167H1.71429C1.25963 13.4167 0.823594 13.2147 0.502103 12.8553C0.180612 12.4958 0 12.0083 0 11.5ZM1.71429 19.1667C1.25963 19.1667 0.823594 19.3686 0.502103 19.728C0.180612 20.0875 0 20.575 0 21.0833C0 21.5917 0.180612 22.0792 0.502103 22.4386C0.823594 22.7981 1.25963 23 1.71429 23H22.2857C22.7404 23 23.1764 22.7981 23.4979 22.4386C23.8194 22.0792 24 21.5917 24 21.0833C24 20.575 23.8194 20.0875 23.4979 19.728C23.1764 19.3686 22.7404 19.1667 22.2857 19.1667H1.71429Z" fill="white"/>
</g>
</svg>
